<mxfile host="app.diagrams.net" agent="Mozilla/5.0 (Windows NT 10.0; Win64; x64) AppleWebKit/537.36 (KHTML, like Gecko) Chrome/138.0.0.0 Safari/537.36" version="28.0.7">
  <diagram name="Page-1" id="gBu4w9rVK8h1kpjpWMPp">
    <mxGraphModel dx="1737" dy="937" grid="1" gridSize="10" guides="1" tooltips="1" connect="1" arrows="1" fold="1" page="1" pageScale="1" pageWidth="850" pageHeight="1100" math="0" shadow="0">
      <root>
        <mxCell id="0" />
        <mxCell id="1" parent="0" />
        <mxCell id="lxG5GezfRtG4YFbs9q1T-1" value="Student Information system" style="rounded=0;whiteSpace=wrap;html=1;fillColor=#fa6800;fontColor=#000000;strokeColor=#C73500;fontSize=21;" vertex="1" parent="1">
          <mxGeometry x="290" width="630" height="60" as="geometry" />
        </mxCell>
        <mxCell id="lxG5GezfRtG4YFbs9q1T-2" value="Login to&amp;nbsp;&lt;div&gt;system&lt;/div&gt;" style="ellipse;whiteSpace=wrap;html=1;aspect=fixed;fillColor=#fa6800;fontColor=#000000;strokeColor=#C73500;fontSize=16;" vertex="1" parent="1">
          <mxGeometry x="280" y="120" width="120" height="120" as="geometry" />
        </mxCell>
        <mxCell id="lxG5GezfRtG4YFbs9q1T-5" value="Check&amp;nbsp;&lt;div&gt;Credentials&lt;/div&gt;" style="ellipse;whiteSpace=wrap;html=1;aspect=fixed;fillColor=#fa6800;fontColor=#000000;strokeColor=#C73500;fontSize=16;" vertex="1" parent="1">
          <mxGeometry x="290" y="280" width="120" height="120" as="geometry" />
        </mxCell>
        <mxCell id="lxG5GezfRtG4YFbs9q1T-38" style="edgeStyle=orthogonalEdgeStyle;rounded=0;orthogonalLoop=1;jettySize=auto;html=1;exitX=0;exitY=1;exitDx=0;exitDy=0;entryX=0;entryY=1;entryDx=0;entryDy=0;" edge="1" parent="1">
          <mxGeometry relative="1" as="geometry">
            <mxPoint x="456.10912703474014" y="333.89087296526" as="sourcePoint" />
            <mxPoint x="456.10912703474014" y="333.89087296526" as="targetPoint" />
          </mxGeometry>
        </mxCell>
        <mxCell id="lxG5GezfRtG4YFbs9q1T-60" style="edgeStyle=orthogonalEdgeStyle;rounded=0;orthogonalLoop=1;jettySize=auto;html=1;exitX=0.5;exitY=1;exitDx=0;exitDy=0;entryX=0.5;entryY=0;entryDx=0;entryDy=0;" edge="1" parent="1" source="lxG5GezfRtG4YFbs9q1T-7" target="lxG5GezfRtG4YFbs9q1T-8">
          <mxGeometry relative="1" as="geometry" />
        </mxCell>
        <mxCell id="lxG5GezfRtG4YFbs9q1T-7" value="Forgot&lt;div&gt;Password&lt;/div&gt;" style="ellipse;whiteSpace=wrap;html=1;aspect=fixed;fillColor=#fa6800;fontColor=#000000;strokeColor=#C73500;fontSize=16;" vertex="1" parent="1">
          <mxGeometry x="75" y="275" width="130" height="130" as="geometry" />
        </mxCell>
        <mxCell id="lxG5GezfRtG4YFbs9q1T-8" value="Send Email&lt;div&gt;to user&lt;/div&gt;" style="ellipse;whiteSpace=wrap;html=1;aspect=fixed;fillColor=#fa6800;fontColor=#000000;strokeColor=#C73500;fontSize=16;" vertex="1" parent="1">
          <mxGeometry x="80" y="480" width="120" height="120" as="geometry" />
        </mxCell>
        <mxCell id="lxG5GezfRtG4YFbs9q1T-61" value="" style="edgeStyle=orthogonalEdgeStyle;rounded=0;orthogonalLoop=1;jettySize=auto;html=1;" edge="1" parent="1" source="lxG5GezfRtG4YFbs9q1T-9" target="lxG5GezfRtG4YFbs9q1T-7">
          <mxGeometry relative="1" as="geometry" />
        </mxCell>
        <mxCell id="lxG5GezfRtG4YFbs9q1T-9" value="Admin" style="rounded=0;whiteSpace=wrap;html=1;fillColor=#fa6800;fontColor=#000000;strokeColor=#C73500;fontSize=21;" vertex="1" parent="1">
          <mxGeometry x="50" y="120" width="180" height="80" as="geometry" />
        </mxCell>
        <mxCell id="lxG5GezfRtG4YFbs9q1T-18" value="Manage System&amp;nbsp;&lt;div&gt;Admins&lt;/div&gt;" style="rounded=0;whiteSpace=wrap;html=1;fillColor=#fa6800;fontColor=#000000;strokeColor=#C73500;fontSize=16;" vertex="1" parent="1">
          <mxGeometry x="85" y="720" width="150" height="80" as="geometry" />
        </mxCell>
        <mxCell id="lxG5GezfRtG4YFbs9q1T-19" value="Manage Roles of user" style="rounded=0;whiteSpace=wrap;html=1;fillColor=#fa6800;fontColor=#000000;strokeColor=#C73500;fontSize=16;" vertex="1" parent="1">
          <mxGeometry x="280" y="720" width="160" height="80" as="geometry" />
        </mxCell>
        <mxCell id="lxG5GezfRtG4YFbs9q1T-34" value="Manage class&lt;div&gt;Details&lt;/div&gt;" style="rounded=0;whiteSpace=wrap;html=1;fillColor=#fa6800;fontColor=#000000;strokeColor=#C73500;fontSize=16;" vertex="1" parent="1">
          <mxGeometry x="720" y="320" width="360" height="40" as="geometry" />
        </mxCell>
        <mxCell id="lxG5GezfRtG4YFbs9q1T-39" value="Manage Timetable&lt;div&gt;Details&lt;/div&gt;" style="rounded=0;whiteSpace=wrap;html=1;fillColor=#fa6800;fontColor=#000000;strokeColor=#C73500;fontSize=16;" vertex="1" parent="1">
          <mxGeometry x="720" y="155" width="360" height="40" as="geometry" />
        </mxCell>
        <mxCell id="lxG5GezfRtG4YFbs9q1T-43" value="Manage Attendance&lt;div&gt;Details&lt;/div&gt;" style="rounded=0;whiteSpace=wrap;html=1;fillColor=#fa6800;fontColor=#000000;strokeColor=#C73500;fontSize=16;" vertex="1" parent="1">
          <mxGeometry x="720" y="240" width="360" height="40" as="geometry" />
        </mxCell>
        <mxCell id="lxG5GezfRtG4YFbs9q1T-45" value="Manage student&lt;div&gt;Details&lt;/div&gt;" style="rounded=0;whiteSpace=wrap;html=1;fillColor=#fa6800;fontColor=#000000;strokeColor=#C73500;fontSize=16;" vertex="1" parent="1">
          <mxGeometry x="720" y="400" width="360" height="40" as="geometry" />
        </mxCell>
        <mxCell id="lxG5GezfRtG4YFbs9q1T-46" value="Manage Fees&lt;div&gt;Details&lt;/div&gt;" style="rounded=0;whiteSpace=wrap;html=1;fillColor=#fa6800;fontColor=#000000;strokeColor=#C73500;fontSize=16;" vertex="1" parent="1">
          <mxGeometry x="720" y="480" width="360" height="40" as="geometry" />
        </mxCell>
        <mxCell id="lxG5GezfRtG4YFbs9q1T-47" value="Manage Teacher&lt;div&gt;Profiles&lt;/div&gt;" style="rounded=0;whiteSpace=wrap;html=1;fillColor=#fa6800;fontColor=#000000;strokeColor=#C73500;fontSize=16;" vertex="1" parent="1">
          <mxGeometry x="720" y="560" width="360" height="40" as="geometry" />
        </mxCell>
        <mxCell id="lxG5GezfRtG4YFbs9q1T-51" value="Manage Report" style="rounded=0;whiteSpace=wrap;html=1;fillColor=#fa6800;fontColor=#000000;strokeColor=#C73500;fontSize=16;" vertex="1" parent="1">
          <mxGeometry x="720" y="640" width="360" height="40" as="geometry" />
        </mxCell>
        <mxCell id="lxG5GezfRtG4YFbs9q1T-54" style="edgeStyle=orthogonalEdgeStyle;rounded=0;orthogonalLoop=1;jettySize=auto;html=1;exitX=0.5;exitY=0;exitDx=0;exitDy=0;entryX=0.573;entryY=-0.03;entryDx=0;entryDy=0;entryPerimeter=0;" edge="1" parent="1">
          <mxGeometry relative="1" as="geometry">
            <mxPoint x="550" y="720.0000000000002" as="sourcePoint" />
            <mxPoint x="560.22" y="717.6000000000001" as="targetPoint" />
          </mxGeometry>
        </mxCell>
        <mxCell id="lxG5GezfRtG4YFbs9q1T-55" value="Manage user&lt;div&gt;permission&lt;/div&gt;" style="rounded=0;whiteSpace=wrap;html=1;fillColor=#fa6800;fontColor=#000000;strokeColor=#C73500;fontSize=16;" vertex="1" parent="1">
          <mxGeometry x="480" y="720" width="160" height="80" as="geometry" />
        </mxCell>
        <mxCell id="lxG5GezfRtG4YFbs9q1T-56" style="edgeStyle=orthogonalEdgeStyle;rounded=0;orthogonalLoop=1;jettySize=auto;html=1;exitX=0.5;exitY=1;exitDx=0;exitDy=0;" edge="1" parent="1" source="lxG5GezfRtG4YFbs9q1T-7" target="lxG5GezfRtG4YFbs9q1T-7">
          <mxGeometry relative="1" as="geometry" />
        </mxCell>
        <mxCell id="lxG5GezfRtG4YFbs9q1T-70" style="edgeStyle=orthogonalEdgeStyle;rounded=0;orthogonalLoop=1;jettySize=auto;html=1;exitX=0.5;exitY=1;exitDx=0;exitDy=0;entryX=0.5;entryY=0;entryDx=0;entryDy=0;" edge="1" parent="1" source="lxG5GezfRtG4YFbs9q1T-64" target="lxG5GezfRtG4YFbs9q1T-65">
          <mxGeometry relative="1" as="geometry" />
        </mxCell>
        <mxCell id="lxG5GezfRtG4YFbs9q1T-64" value="check roles of&lt;div&gt;access&lt;/div&gt;" style="ellipse;whiteSpace=wrap;html=1;aspect=fixed;fillColor=#fa6800;fontColor=#000000;strokeColor=#C73500;fontSize=16;" vertex="1" parent="1">
          <mxGeometry x="480" y="120" width="120" height="120" as="geometry" />
        </mxCell>
        <mxCell id="lxG5GezfRtG4YFbs9q1T-65" value="Manage&lt;div&gt;modules&lt;/div&gt;" style="ellipse;whiteSpace=wrap;html=1;aspect=fixed;fillColor=#fa6800;fontColor=#000000;strokeColor=#C73500;fontSize=16;" vertex="1" parent="1">
          <mxGeometry x="480" y="280" width="120" height="120" as="geometry" />
        </mxCell>
        <mxCell id="lxG5GezfRtG4YFbs9q1T-67" style="edgeStyle=orthogonalEdgeStyle;rounded=0;orthogonalLoop=1;jettySize=auto;html=1;entryX=0.036;entryY=0.344;entryDx=0;entryDy=0;entryPerimeter=0;" edge="1" parent="1" source="lxG5GezfRtG4YFbs9q1T-9" target="lxG5GezfRtG4YFbs9q1T-2">
          <mxGeometry relative="1" as="geometry" />
        </mxCell>
        <mxCell id="lxG5GezfRtG4YFbs9q1T-72" value="" style="endArrow=classic;html=1;rounded=0;exitX=0.358;exitY=1.022;exitDx=0;exitDy=0;exitPerimeter=0;entryX=0.61;entryY=-0.033;entryDx=0;entryDy=0;entryPerimeter=0;" edge="1" parent="1" source="lxG5GezfRtG4YFbs9q1T-65" target="lxG5GezfRtG4YFbs9q1T-19">
          <mxGeometry width="50" height="50" relative="1" as="geometry">
            <mxPoint x="300" y="590" as="sourcePoint" />
            <mxPoint x="350" y="540" as="targetPoint" />
          </mxGeometry>
        </mxCell>
        <mxCell id="lxG5GezfRtG4YFbs9q1T-73" value="" style="endArrow=classic;html=1;rounded=0;exitX=1;exitY=0;exitDx=0;exitDy=0;entryX=0;entryY=0.25;entryDx=0;entryDy=0;" edge="1" parent="1" source="lxG5GezfRtG4YFbs9q1T-65" target="lxG5GezfRtG4YFbs9q1T-39">
          <mxGeometry width="50" height="50" relative="1" as="geometry">
            <mxPoint x="630" y="250" as="sourcePoint" />
            <mxPoint x="680" y="200" as="targetPoint" />
          </mxGeometry>
        </mxCell>
        <mxCell id="lxG5GezfRtG4YFbs9q1T-74" value="" style="endArrow=classic;html=1;rounded=0;exitX=0.958;exitY=0.256;exitDx=0;exitDy=0;exitPerimeter=0;entryX=0;entryY=0.75;entryDx=0;entryDy=0;" edge="1" parent="1" source="lxG5GezfRtG4YFbs9q1T-65" target="lxG5GezfRtG4YFbs9q1T-43">
          <mxGeometry width="50" height="50" relative="1" as="geometry">
            <mxPoint x="640" y="330" as="sourcePoint" />
            <mxPoint x="690" y="280" as="targetPoint" />
          </mxGeometry>
        </mxCell>
        <mxCell id="lxG5GezfRtG4YFbs9q1T-75" value="" style="endArrow=classic;html=1;rounded=0;exitX=1;exitY=0.5;exitDx=0;exitDy=0;entryX=0;entryY=0.5;entryDx=0;entryDy=0;" edge="1" parent="1" source="lxG5GezfRtG4YFbs9q1T-65" target="lxG5GezfRtG4YFbs9q1T-34">
          <mxGeometry width="50" height="50" relative="1" as="geometry">
            <mxPoint x="650" y="370" as="sourcePoint" />
            <mxPoint x="700" y="320" as="targetPoint" />
          </mxGeometry>
        </mxCell>
        <mxCell id="lxG5GezfRtG4YFbs9q1T-76" value="" style="endArrow=classic;html=1;rounded=0;" edge="1" parent="1" source="lxG5GezfRtG4YFbs9q1T-65">
          <mxGeometry width="50" height="50" relative="1" as="geometry">
            <mxPoint x="640" y="430" as="sourcePoint" />
            <mxPoint x="710" y="420" as="targetPoint" />
          </mxGeometry>
        </mxCell>
        <mxCell id="lxG5GezfRtG4YFbs9q1T-77" value="" style="endArrow=classic;html=1;rounded=0;exitX=1;exitY=1;exitDx=0;exitDy=0;entryX=0;entryY=0.5;entryDx=0;entryDy=0;" edge="1" parent="1" source="lxG5GezfRtG4YFbs9q1T-65" target="lxG5GezfRtG4YFbs9q1T-46">
          <mxGeometry width="50" height="50" relative="1" as="geometry">
            <mxPoint x="590" y="440" as="sourcePoint" />
            <mxPoint x="640" y="390" as="targetPoint" />
          </mxGeometry>
        </mxCell>
        <mxCell id="lxG5GezfRtG4YFbs9q1T-78" value="" style="endArrow=classic;html=1;rounded=0;exitX=0.703;exitY=1;exitDx=0;exitDy=0;exitPerimeter=0;entryX=0;entryY=0.5;entryDx=0;entryDy=0;" edge="1" parent="1" source="lxG5GezfRtG4YFbs9q1T-65" target="lxG5GezfRtG4YFbs9q1T-47">
          <mxGeometry width="50" height="50" relative="1" as="geometry">
            <mxPoint x="580" y="480" as="sourcePoint" />
            <mxPoint x="630" y="430" as="targetPoint" />
          </mxGeometry>
        </mxCell>
        <mxCell id="lxG5GezfRtG4YFbs9q1T-79" value="" style="endArrow=classic;html=1;rounded=0;entryX=0;entryY=0.5;entryDx=0;entryDy=0;" edge="1" parent="1" target="lxG5GezfRtG4YFbs9q1T-51">
          <mxGeometry width="50" height="50" relative="1" as="geometry">
            <mxPoint x="560" y="400" as="sourcePoint" />
            <mxPoint x="590" y="470" as="targetPoint" />
          </mxGeometry>
        </mxCell>
        <mxCell id="lxG5GezfRtG4YFbs9q1T-80" value="" style="endArrow=classic;html=1;rounded=0;exitX=0.5;exitY=1;exitDx=0;exitDy=0;" edge="1" parent="1" source="lxG5GezfRtG4YFbs9q1T-65">
          <mxGeometry width="50" height="50" relative="1" as="geometry">
            <mxPoint x="540" y="500" as="sourcePoint" />
            <mxPoint x="550" y="710" as="targetPoint" />
          </mxGeometry>
        </mxCell>
        <mxCell id="lxG5GezfRtG4YFbs9q1T-82" value="" style="endArrow=classic;html=1;rounded=0;entryX=-0.008;entryY=0.644;entryDx=0;entryDy=0;entryPerimeter=0;" edge="1" parent="1" source="lxG5GezfRtG4YFbs9q1T-5" target="lxG5GezfRtG4YFbs9q1T-64">
          <mxGeometry width="50" height="50" relative="1" as="geometry">
            <mxPoint x="515" y="470" as="sourcePoint" />
            <mxPoint x="370" y="784" as="targetPoint" />
          </mxGeometry>
        </mxCell>
        <mxCell id="lxG5GezfRtG4YFbs9q1T-84" value="" style="endArrow=classic;html=1;rounded=0;exitX=0.5;exitY=1;exitDx=0;exitDy=0;entryX=0.408;entryY=0.011;entryDx=0;entryDy=0;entryPerimeter=0;" edge="1" parent="1" source="lxG5GezfRtG4YFbs9q1T-2" target="lxG5GezfRtG4YFbs9q1T-5">
          <mxGeometry width="50" height="50" relative="1" as="geometry">
            <mxPoint x="520" y="360" as="sourcePoint" />
            <mxPoint x="330" y="270" as="targetPoint" />
          </mxGeometry>
        </mxCell>
        <mxCell id="lxG5GezfRtG4YFbs9q1T-85" value="" style="endArrow=classic;html=1;rounded=0;" edge="1" parent="1" source="lxG5GezfRtG4YFbs9q1T-65">
          <mxGeometry width="50" height="50" relative="1" as="geometry">
            <mxPoint x="520" y="450" as="sourcePoint" />
            <mxPoint x="180" y="710" as="targetPoint" />
          </mxGeometry>
        </mxCell>
      </root>
    </mxGraphModel>
  </diagram>
</mxfile>
